REM DISCID 3707A505
REM COMMENT "ExactAudioCopy v0.95b4"
PERFORMER "Ludwig Van Beethoven"
TITLE "The 5 Cello Sonatas"
FILE "01 - Sonata No. 4 in C major, op. 102 no.1.wav" WAVE
  TRACK 01 AUDIO
    TITLE "Sonata No. 4 in C major, op. 102 no.1"
    PERFORMER "Ludwig Van Beethoven"
    INDEX 01 00:00:00
  TRACK 02 AUDIO
    TITLE "Sonata No. 4 in C major, op. 102 no.1"
    PERFORMER "Ludwig Van Beethoven"
    INDEX 00 07:40:70
FILE "02 - Sonata No. 4 in C major, op. 102 no.1.wav" WAVE
    INDEX 01 00:00:00
  TRACK 03 AUDIO
    TITLE "Sonata No. 5 in D major, op. 102 no.2"
    PERFORMER "Ludwig Van Beethoven"
    INDEX 00 06:48:63
FILE "03 - Sonata No. 5 in D major, op. 102 no.2.wav" WAVE
    INDEX 01 00:00:00
  TRACK 04 AUDIO
    TITLE "Sonata No. 5 in D major, op. 102 no.2"
    PERFORMER "Ludwig Van Beethoven"
    INDEX 00 06:20:55
FILE "04 - Sonata No. 5 in D major, op. 102 no.2.wav" WAVE
    INDEX 01 00:00:00
FILE "05 - Sonata No. 5 in D major, op. 102 no.2.wav" WAVE
  TRACK 05 AUDIO
    TITLE "Sonata No. 5 in D major, op. 102 no.2"
    PERFORMER "Ludwig Van Beethoven"
    INDEX 01 00:00:00
